HIERARCHY
ROOT Hips
{
	OFFSET -3.958830 18.904000 13.208200
	CHANNELS 6 Xposition Yposition Zposition Zrotation Yrotation Xrotation 
	JOINT LHipJoint
	{
		OFFSET 0.000000 0.000000 0.000000
		CHANNELS 3 Zrotation Yrotation Xrotation
		JOINT LeftUpLeg
		{
			OFFSET 1.800000 -1.400000 0.085000
			CHANNELS 3 Zrotation Yrotation Xrotation
			JOINT LeftLeg
			{
				OFFSET 2.215000 -6.000000 0.000000
				CHANNELS 3 Zrotation Yrotation Xrotation
				JOINT LeftFoot
				{
					OFFSET 2.500000 -6.900000 0.000000
					CHANNELS 3 Zrotation Yrotation Xrotation
					JOINT LeftToeBase
					{
						OFFSET 0.200000 -0.500000 1.950000
						CHANNELS 3 Zrotation Yrotation Xrotation
						End Site
						{
							OFFSET 0.000000 0.000000 0.000000
						}
					}
				}
			}
		}
	}
	JOINT RHipJoint
	{
		OFFSET 0.000000 0.000000 0.000000
		CHANNELS 3 Zrotation Yrotation Xrotation
		JOINT RightUpLeg
		{
			OFFSET -1.800000 -1.400000 0.085000
			CHANNELS 3 Zrotation Yrotation Xrotation
			JOINT RightLeg
			{
				OFFSET -2.215000 -6.000000 0.000000
				CHANNELS 3 Zrotation Yrotation Xrotation
				JOINT RightFoot
				{
					OFFSET -2.500000 -6.900000 0.000000
					CHANNELS 3 Zrotation Yrotation Xrotation
					JOINT RightToeBase
					{
						OFFSET -0.200000 -0.500000 1.950000
						CHANNELS 3 Zrotation Yrotation Xrotation
						End Site
						{
							OFFSET 0.000000 0.000000 0.000000
						}
					}
				}
			}
		}
	}
	JOINT LowerBack
	{
		OFFSET 0.000000 0.000000 0.000000
		CHANNELS 3 Zrotation Yrotation Xrotation
		JOINT Spine
		{
			OFFSET -0.087000 1.940000 -0.288900
			CHANNELS 3 Zrotation Yrotation Xrotation
			JOINT Spine1
			{
				OFFSET 0.000000 1.950000 0.060000
				CHANNELS 3 Zrotation Yrotation Xrotation
				JOINT Neck
				{
					OFFSET 0.000000 0.000000 0.000000
					CHANNELS 3 Zrotation Yrotation Xrotation
					JOINT Neck1
					{
						OFFSET 0.000000 1.600000 0.340000
						CHANNELS 3 Zrotation Yrotation Xrotation
						JOINT Head
						{
							OFFSET 0.000000 1.667000 -0.240000
							CHANNELS 3 Zrotation Yrotation Xrotation
							End Site
							{
								OFFSET 0.000000 0.000000 0.000000
							}
						}
					}
				}
				JOINT LeftShoulder
				{
					OFFSET 0.000000 0.000000 0.000000
					CHANNELS 3 Zrotation Yrotation Xrotation
					JOINT LeftArm
					{
						OFFSET 2.700000 1.550000 -0.730000
						CHANNELS 3 Zrotation Yrotation Xrotation
						JOINT LeftForeArm
						{
							OFFSET 5.450000 0.000000 0.000000
							CHANNELS 3 Zrotation Yrotation Xrotation
							JOINT LeftHand
							{
								OFFSET 3.450000 0.000000 0.000000
								CHANNELS 3 Zrotation Yrotation Xrotation
								JOINT LeftHandIndex1
								{
									OFFSET 0.750000 0.000000 0.000000
									CHANNELS 3 Zrotation Yrotation Xrotation
									End Site
									{
										OFFSET 0.000000 0.000000 0.000000
									}
								}
							}
						}
					}
				}
				JOINT RightShoulder
				{
					OFFSET 0.000000 0.000000 0.000000
					CHANNELS 3 Zrotation Yrotation Xrotation
					JOINT RightArm
					{
						OFFSET -2.700000 1.550000 -0.730000
						CHANNELS 3 Zrotation Yrotation Xrotation
						JOINT RightForeArm
						{
							OFFSET -5.450000 0.000000 0.000000
							CHANNELS 3 Zrotation Yrotation Xrotation
							JOINT RightHand
							{
								OFFSET -3.450000 0.000000 0.000000
								CHANNELS 3 Zrotation Yrotation Xrotation
								JOINT RightHandIndex1
								{
									OFFSET -0.750000 0.000000 0.000000
									CHANNELS 3 Zrotation Yrotation Xrotation
									End Site
									{
										OFFSET 0.000000 0.000000 0.000000
									}
								}
							}
						}
					}
				}
			}
		}
	}
}
MOTION
Frames: 14
Frame Time: 0.016667
-0.177400 16.798420 -2.955760 -3.654101 -6.083506 2.090946 -15.229524 11.898823 3.222114 -10.751385 -3.812873 -5.945232 -9.976963 12.757342 42.255484 0.791949 8.735118 1.733939 0.759360 0.314440 0.921510 18.613049 -8.391340 4.927127 -2.960335 12.503084 -42.348760 35.776791 -19.071592 36.160560 -1.555615 -8.271817 1.632911 0.123120 -0.081970 0.364360 -4.062028 -2.360703 -8.755749 20.020484 -5.715629 23.605715 -1.383604 -2.963166 11.109119 2.842818 -0.983210 -8.214587 -3.527618 1.571779 33.944911 -15.237510 9.058010 -13.539250 -12.872140 4.338550 3.060318 -18.440692 15.632334 -2.285070 176.632884 -53.593003 172.716203 -3.768214 3.625419 0.513500 0.145560 0.120530 0.117890 7.249381 -5.014987 3.964482 32.004456 -15.192779 -13.847275 172.908387 63.236156 150.886937 1.651359 -2.259296 0.005530 -0.036200 -0.324380 -0.414570 
-0.180750 16.768060 -2.946000 -3.052075 -6.069869 2.051325 -15.266441 11.943663 3.254596 -11.436039 -3.517828 -5.231634 -9.779124 12.471093 41.500094 0.769280 8.581953 1.780013 0.777360 0.320150 0.967600 18.576333 -8.385403 4.881850 -2.889210 12.262417 -42.000847 35.344209 -18.578460 35.576530 -1.524169 -8.073763 1.687329 0.115680 -0.111730 0.368410 -3.956782 -2.474322 -8.751168 18.566027 -5.242116 22.900279 -0.666059 -3.041443 12.191685 2.832663 -0.581311 -8.599206 -2.975571 1.636222 34.715506 -15.780590 9.579090 -14.430620 -12.242530 3.912676 3.534770 -18.643523 16.335724 -2.332583 175.204765 -52.192289 175.157208 -3.757741 3.600016 0.538490 0.126550 0.146490 0.106600 6.732080 -4.837114 4.193090 32.150558 -15.408823 -13.729337 171.932680 61.883790 147.890058 1.665562 -2.244937 0.012330 -0.040350 -0.337600 -0.431610 
-0.186420 16.722430 -2.951130 -2.455211 -5.835444 1.679059 -15.331168 12.088403 3.275630 -11.089630 -3.228252 -4.418275 -10.473996 12.781559 40.712796 0.819844 8.581547 1.794170 0.733610 0.264050 0.945380 18.499736 -8.352894 4.823711 -2.589563 12.043216 -41.241438 34.758689 -17.853545 34.715673 -1.451505 -7.796071 1.774443 0.071510 -0.120890 0.353920 -3.745044 -2.782168 -8.769473 16.528030 -4.853250 22.999113 0.461340 -3.245295 13.024403 2.686169 -0.376846 -9.602812 -2.739583 2.149938 35.387166 -15.863830 10.428350 -14.071300 -10.128790 3.846147 4.316273 -18.798166 17.441875 -2.000352 174.900874 -50.080268 175.507008 -3.735490 3.597584 0.551890 0.104530 0.149690 0.101510 4.984114 -4.721631 5.060094 34.269655 -14.661734 -12.295958 177.264663 56.456895 153.053928 1.724009 -2.324062 0.002510 -0.054530 -0.333590 -0.431050 
-0.180260 16.728480 -2.956100 -1.962959 -5.245077 1.309194 -15.383942 12.198620 3.306719 -10.348462 -3.361083 -4.230839 -11.785947 13.480883 40.588521 0.901036 8.784494 1.740959 0.659410 0.185400 0.865520 18.436656 -8.289659 4.770468 -3.458564 11.379481 -40.957459 35.232392 -17.832850 33.919777 -1.407077 -7.747385 1.798934 0.015100 -0.080840 0.350490 -3.572235 -3.114971 -8.795133 15.096984 -4.948646 23.493237 1.074287 -3.666480 12.991594 2.495269 -0.866721 -10.357199 -3.622883 3.070281 35.131924 -14.981930 10.836890 -12.958180 -8.469604 4.164407 4.852916 -20.673005 17.487699 -2.072358 175.556991 -49.337753 173.673381 -3.738456 3.612211 0.544300 0.113020 0.119000 0.092250 3.742736 -4.570760 5.753522 36.814711 -13.649480 -10.693351 177.883686 51.301035 150.966527 1.773513 -2.353805 -0.006380 -0.062510 -0.287610 -0.412040 
-0.160890 16.808630 -2.958550 -1.934393 -4.998406 1.100687 -15.380448 12.264019 3.308789 -9.131521 -3.703151 -4.991385 -12.876179 14.141201 40.867518 1.063847 8.958901 1.729377 0.583960 0.119940 0.748890 18.420611 -8.277743 4.752038 -4.769494 10.703858 -40.812898 36.111691 -18.278005 33.574014 -1.402728 -7.878804 1.804388 -0.064680 -0.011300 0.353060 -3.547665 -3.270637 -8.810383 15.101970 -5.629443 24.536524 0.447975 -4.142560 11.973918 2.533596 -1.983401 -11.274686 -5.414683 4.126172 33.826230 -13.796880 11.005960 -10.048830 -7.328549 4.244720 5.565480 -24.626218 17.411109 -3.026236 178.479294 -50.500664 166.514245 -3.709425 3.681591 0.480610 0.136960 0.078160 0.130630 2.515792 -3.718339 6.541426 40.598427 -11.788949 -9.170425 176.642808 47.462235 146.029418 1.851940 -2.400583 0.024150 -0.085590 -0.272740 -0.344540 
-0.154230 16.965060 -2.969930 -2.753105 -4.301002 0.387898 -15.315814 12.376917 3.239464 -6.782953 -4.016505 -5.953494 -12.762295 14.442276 41.819762 1.148829 9.129580 1.700877 0.521220 0.057560 0.654300 18.438112 -8.418612 4.682088 -5.527621 10.035403 -39.259000 36.747355 -18.356186 32.545626 -1.370066 -7.845690 1.866903 -0.130720 0.061170 0.353880 -3.655232 -3.233898 -8.753670 16.726719 -6.616566 26.388971 -1.018679 -4.364386 10.227001 2.719305 -2.925031 -11.601268 -6.847495 5.305184 32.902163 -12.088550 10.824110 -8.198610 -6.999428 4.446681 5.568447 -28.909214 15.925951 -4.385315 -174.384354 -54.112141 152.522874 -3.669938 3.720216 0.444730 0.159790 0.041020 0.156240 1.772967 -3.204280 6.886026 45.431635 -9.774987 -8.562874 173.218929 46.401253 138.258145 1.893309 -2.392231 0.038510 -0.078120 -0.243210 -0.295290 
-0.153050 17.160310 -2.964480 -3.767760 -3.462166 0.582715 -15.224786 12.443940 3.123023 -4.062443 -4.225903 -8.008775 -11.943677 14.320819 42.524597 1.122770 9.096431 1.698070 0.510160 0.045090 0.639940 18.479267 -8.641945 4.622728 -6.148775 9.598926 -37.996932 36.190779 -17.914177 31.630852 -1.302899 -7.655081 1.930707 -0.147970 0.065070 0.341050 -3.835819 -2.939941 -8.648186 18.770653 -6.991266 26.015486 -2.255458 -4.165005 9.095997 3.032083 -3.295615 -11.550966 -7.293223 5.674157 32.592747 -11.387830 10.277330 -7.434560 -6.664719 4.603524 5.079508 -34.562080 12.637775 -6.004949 -158.078667 -60.637024 128.587431 -3.574534 3.713340 0.426850 0.151040 0.029710 0.158530 0.727543 -2.996800 7.123433 50.690899 -7.472971 -8.252517 169.601687 47.688521 132.530740 1.914529 -2.380662 0.048370 -0.081810 -0.245980 -0.280110 
-0.178600 17.368640 -2.959620 -3.808410 -2.385369 0.868954 -15.205821 12.573604 3.124856 -1.704040 -4.731306 -10.844585 -10.973824 14.265358 44.055039 1.051835 9.226790 1.634315 0.481290 0.001270 0.602180 18.443861 -8.818642 4.485457 -7.133716 8.785934 -36.624670 34.098079 -17.079614 31.043384 -1.167861 -7.364094 2.014139 -0.144550 0.089420 0.305350 -3.803303 -2.930237 -8.602450 18.136879 -6.664031 25.883433 -2.182279 -3.697251 7.118948 3.034964 -3.381964 -11.102960 -7.331349 5.779841 32.430482 -9.633520 9.157130 -6.348820 -7.975268 4.771280 4.307931 -39.020765 10.396650 -7.147162 -136.161262 -64.891747 101.900618 -3.577437 3.588838 0.442010 0.147700 -0.010190 0.152880 1.984242 -2.781223 6.944295 53.172285 -6.656497 -8.906640 163.289312 50.724173 123.473363 1.915656 -2.300645 0.001970 -0.060620 -0.223660 -0.287590 
-0.203650 17.568990 -2.960390 -3.884535 -1.785333 1.578797 -15.209982 12.685350 3.238170 1.001243 -5.388512 -14.553881 -10.463518 14.586184 46.069668 1.091796 9.503258 1.529079 0.509260 0.018680 0.604800 18.388939 -8.999536 4.255718 -7.298206 8.071122 -35.124851 30.152293 -15.706348 30.827251 -1.017174 -6.878091 2.162040 -0.143580 0.093460 0.321460 -3.711173 -2.957989 -8.564960 17.072077 -6.107613 25.123786 -1.604331 -3.100666 5.243426 3.139312 -3.420816 -10.480910 -7.304615 5.950961 32.437843 -8.597280 8.574550 -5.431960 -10.631990 4.991252 3.543072 -43.445059 8.971849 -7.963082 -109.873351 -68.909380 75.645157 -3.684627 3.434017 0.428430 0.140930 -0.005900 0.185110 4.419219 -2.607719 6.530363 53.644017 -6.345982 -9.867591 158.107155 53.996392 118.019899 1.943313 -2.230399 0.026020 -0.079350 -0.252970 -0.267060 
-0.227640 17.745180 -2.948090 -3.233395 -0.936922 2.586278 -15.249301 12.810187 3.409379 2.937623 -5.860519 -18.140453 -9.583871 14.448068 47.170984 1.042369 9.565258 1.468389 0.506290 -0.005490 0.603170 18.299837 -9.223954 3.960843 -7.750394 7.054051 -33.559744 25.467282 -13.922946 30.205458 -0.797180 -6.241431 2.352057 -0.149910 0.086110 0.322730 -3.525795 -2.993754 -8.525754 14.541516 -5.178701 23.543167 -0.548087 -2.542011 3.782248 3.292024 -2.906469 -9.955120 -6.304902 5.869247 32.676591 -7.954130 8.387870 -4.152110 -12.580255 5.152412 2.985622 -47.565360 7.948101 -8.551108 -74.881501 -68.546211 45.570968 -3.587730 3.744683 0.420780 0.141150 -0.027390 0.176920 6.125526 -2.702641 6.116392 54.008993 -5.601540 -11.141383 151.186392 58.830196 112.660552 1.964845 -2.073147 0.025490 -0.113210 -0.251690 -0.276330 
-0.251620 17.897760 -2.918290 -2.763766 0.049784 3.441528 -15.279270 13.009091 3.485378 4.706264 -5.807961 -20.932980 -7.657775 13.377742 46.748257 0.886729 9.231931 1.563281 0.464960 -0.069950 0.574570 18.212627 -9.529578 3.665846 -8.242324 6.047872 -31.830541 20.779099 -12.314941 29.856863 -0.597395 -5.674996 2.556593 -0.172210 0.132910 0.315870 -3.361864 -2.984929 -8.432005 12.250169 -4.236211 21.375409 0.555732 -2.019961 2.754256 3.366803 -2.391017 -9.572937 -5.489373 5.486942 33.713324 -7.608650 8.021660 -2.232040 -13.896334 4.833094 2.426547 -51.217401 6.400382 -10.383254 -46.655292 -60.686003 22.483474 -3.539456 3.616201 0.418380 0.169530 -0.059610 0.184230 7.400388 -2.398334 5.937427 54.309763 -4.830041 -12.977985 142.416424 64.265974 106.675812 2.002976 -1.739295 -0.008000 -0.093090 -0.233910 -0.276430 
-0.248470 18.014490 -2.875270 -2.806437 0.438900 4.691595 -15.220805 13.051746 3.438190 6.399500 -5.270994 -23.396749 -5.613619 12.023976 44.870725 0.727187 8.591347 1.763591 0.427090 -0.089000 0.523260 18.236448 -9.892984 3.471131 -8.799799 5.486287 -30.866695 17.046427 -11.052857 29.749225 -0.439649 -5.304035 2.700348 -0.183640 0.204490 0.321370 -3.484499 -2.509026 -8.251983 12.084488 -3.298086 18.226994 0.197937 -1.392023 1.771289 3.325591 -2.011356 -8.752372 -4.681354 4.760993 33.484544 -6.942150 7.162260 0.180040 -15.049626 5.190170 1.493730 -53.309977 4.113290 -10.099111 -28.819947 -49.138244 9.736453 -3.639083 3.409834 0.332610 0.228870 -0.108530 0.197090 8.558227 -2.873586 5.405156 54.442692 -4.067575 -14.769987 129.347263 69.767690 96.885454 2.163681 -1.061209 0.005420 -0.086460 -0.221570 -0.233310 
-0.235430 18.085310 -2.831180 -2.038795 1.410981 6.581791 -15.201488 13.030858 3.366726 6.927641 -4.899795 -25.693038 -3.978930 10.186653 40.444767 0.429651 7.528749 2.141185 0.355620 -0.155760 0.440140 18.246150 -10.219888 3.267585 -10.209810 4.645375 -30.583374 13.752544 -9.682092 28.398106 -0.231392 -4.894437 2.866903 -0.175240 0.336710 0.314560 -3.541233 -2.017396 -7.933356 10.701777 -2.479837 14.395410 -0.489311 -1.240175 0.569534 3.463664 -1.206181 -7.301419 -2.857002 3.921866 31.052893 -6.742610 6.832570 3.138910 -16.006538 6.942870 0.223604 -54.345136 2.501273 -8.911947 -17.340701 -39.706003 3.945097 -3.824469 3.223672 0.235860 0.344690 -0.221560 0.215480 9.190241 -5.266249 4.011975 55.243627 -2.637656 -12.635369 105.355888 77.416698 75.185643 3.378881 1.557181 -0.046670 -0.057060 -0.183520 -0.211380 
-0.218290 18.119330 -2.789830 -1.237776 2.795016 9.156185 -15.160072 12.839204 3.273934 7.247698 -4.672335 -27.810742 -2.997811 8.474733 34.634642 0.143527 6.395891 2.594985 0.240520 -0.296160 0.321230 18.311448 -10.559823 3.030355 -11.273047 3.839819 -30.343359 10.264119 -7.885987 25.302458 0.047960 -4.346912 3.078999 -0.174540 0.545050 0.341890 -3.714429 -1.236607 -7.444603 9.418321 -1.745752 9.007603 -1.076187 -1.323129 0.426746 3.253591 -0.370356 -5.972985 -0.779904 3.471865 27.035185 -6.377610 6.738840 8.295890 -15.978330 8.678000 -0.904891 -55.782848 0.883729 -7.474537 -8.603543 -29.383261 0.595305 -4.112471 3.115199 0.066510 0.537710 -0.415180 0.232850 9.671036 -7.776869 3.207757 56.142852 -1.343663 -8.719915 45.045038 83.353318 30.083799 2.004292 -2.361218 -0.117990 -0.066460 -0.119960 -0.182350 
